<?xml version="1.0" encoding="UTF-8" standalone="no"?>
<svg
   xmlns:dc="http://purl.org/dc/elements/1.1/"
   xmlns:cc="http://creativecommons.org/ns#"
   xmlns:rdf="http://www.w3.org/1999/02/22-rdf-syntax-ns#"
   xmlns:svg="http://www.w3.org/2000/svg"
   xmlns="http://www.w3.org/2000/svg"
   xmlns:xlink="http://www.w3.org/1999/xlink"
   xmlns:sodipodi="http://sodipodi.sourceforge.net/DTD/sodipodi-0.dtd"
   xmlns:inkscape="http://www.inkscape.org/namespaces/inkscape"
   contentScriptType="text/ecmascript"
   zoomAndPan="magnify"
   contentStyleType="text/css"
   version="1.1"
   width="44px"
   preserveAspectRatio="xMidYMid meet"
   viewBox="0 0 44 44"
   height="44px"
   x="0px"
   y="0px"
   id="svg2"
   inkscape:version="0.47 r22583"
   sodipodi:docname="icon2.svg">
  <metadata
     id="metadata53">
    <rdf:RDF>
      <cc:Work
         rdf:about="">
        <dc:format>image/svg+xml</dc:format>
        <dc:type
           rdf:resource="http://purl.org/dc/dcmitype/StillImage" />
        <dc:title></dc:title>
      </cc:Work>
    </rdf:RDF>
  </metadata>
  <defs
     id="defs51">
    <inkscape:perspective
       sodipodi:type="inkscape:persp3d"
       inkscape:vp_x="0 : 22 : 1"
       inkscape:vp_y="0 : 1000 : 0"
       inkscape:vp_z="44 : 22 : 1"
       inkscape:persp3d-origin="22 : 14.666667 : 1"
       id="perspective55" />
    <inkscape:perspective
       id="perspective2885"
       inkscape:persp3d-origin="22 : 14.666667 : 1"
       inkscape:vp_z="44 : 22 : 1"
       inkscape:vp_y="0 : 1000 : 0"
       inkscape:vp_x="0 : 22 : 1"
       sodipodi:type="inkscape:persp3d" />
    <inkscape:perspective
       id="perspective2901"
       inkscape:persp3d-origin="0.5 : 0.33333333 : 1"
       inkscape:vp_z="1 : 0.5 : 1"
       inkscape:vp_y="0 : 1000 : 0"
       inkscape:vp_x="0 : 0.5 : 1"
       sodipodi:type="inkscape:persp3d" />
    <inkscape:perspective
       id="perspective2932"
       inkscape:persp3d-origin="0.5 : 0.33333333 : 1"
       inkscape:vp_z="1 : 0.5 : 1"
       inkscape:vp_y="0 : 1000 : 0"
       inkscape:vp_x="0 : 0.5 : 1"
       sodipodi:type="inkscape:persp3d" />
    <linearGradient
       x1="4.8843002"
       y1="22.788099"
       x2="39.3535"
       gradientUnits="userSpaceOnUse"
       y2="22.788099"
       xlink:type="simple"
       xlink:actuate="onLoad"
       id="SVGID_1_"
       xlink:show="other">
      <stop
         stop-color="#870000"
         offset="0"
         id="stop25" />
      <stop
         stop-color="#610000"
         offset="1"
         id="stop27" />
    </linearGradient>
    <linearGradient
       x1="19.5513"
       gradientTransform="matrix(0.8021,-0.5971,0.5971,0.8021,-5.9574,14.3803)"
       y1="7.3691001"
       x2="19.5513"
       gradientUnits="userSpaceOnUse"
       y2="33.576698"
       xlink:type="simple"
       xlink:actuate="onLoad"
       id="SVGID_2_"
       xlink:show="other">
      <stop
         stop-color="#ea0000"
         offset="0"
         id="stop34" />
      <stop
         stop-color="#aa0000"
         offset="1"
         id="stop36" />
    </linearGradient>
    <linearGradient
       x1="21.2397"
       gradientTransform="matrix(0.8021,-0.5971,0.5971,0.8021,-5.9574,14.3803)"
       y1="-7.2012"
       x2="21.2397"
       gradientUnits="userSpaceOnUse"
       y2="31.216101"
       xlink:type="simple"
       xlink:actuate="onLoad"
       id="SVGID_3_"
       xlink:show="other">
      <stop
         stop-color="#ff8d8d"
         offset="0"
         id="stop43" />
      <stop
         stop-color="#ff302e"
         offset="1"
         id="stop45" />
    </linearGradient>
    <linearGradient
       inkscape:collect="always"
       xlink:href="#SVGID_1_"
       id="linearGradient3043"
       gradientUnits="userSpaceOnUse"
       x1="4.8843002"
       y1="22.788099"
       x2="39.3535"
       y2="22.788099" />
    <linearGradient
       inkscape:collect="always"
       xlink:href="#SVGID_2_"
       id="linearGradient3045"
       gradientUnits="userSpaceOnUse"
       gradientTransform="matrix(0.8021,-0.5971,0.5971,0.8021,-5.9574,14.3803)"
       x1="19.5513"
       y1="7.3691001"
       x2="19.5513"
       y2="33.576698" />
    <linearGradient
       inkscape:collect="always"
       xlink:href="#SVGID_3_"
       id="linearGradient3047"
       gradientUnits="userSpaceOnUse"
       gradientTransform="matrix(0.8021,-0.5971,0.5971,0.8021,-5.9574,14.3803)"
       x1="21.2397"
       y1="-7.2012"
       x2="21.2397"
       y2="31.216101" />
  </defs>
  <sodipodi:namedview
     pagecolor="#ffffff"
     bordercolor="#666666"
     borderopacity="1"
     objecttolerance="10"
     gridtolerance="10"
     guidetolerance="10"
     inkscape:pageopacity="0"
     inkscape:pageshadow="2"
     inkscape:window-width="1205"
     inkscape:window-height="998"
     id="namedview49"
     showgrid="false"
     showguides="true"
     inkscape:guide-bbox="true"
     inkscape:zoom="8.5192225"
     inkscape:cx="3.179782"
     inkscape:cy="27.325499"
     inkscape:window-x="-4"
     inkscape:window-y="-4"
     inkscape:window-maximized="1"
     inkscape:current-layer="layer1">
    <sodipodi:guide
       orientation="1,0"
       position="3.8828125,24.109375"
       id="guide2861" />
    <sodipodi:guide
       orientation="0,1"
       position="22.625,42.761719"
       id="guide2863" />
    <sodipodi:guide
       orientation="1,0"
       position="40.351562,18.492188"
       id="guide2865" />
    <sodipodi:guide
       orientation="0,1"
       position="20.164062,1.8398438"
       id="guide2867" />
  </sodipodi:namedview>
  <g
     id="g4">
    <g
       id="g6">
      <path
         d="M 0.0 0.0 C 13.152 0.0 26.305 0.0 39.455 0.0 C 40.84 0.0 42.223003 0.011 43.605003 -0.041 C 44.363 -0.069 44.0 2.989 44.0 3.555 C 44.0 6.859 44.0 10.163 44.0 13.468 C 44.0 20.11 44.0 26.751 44.0 33.391 C 44.0 36.641 44.0 39.889 44.0 43.139 C 44.0 43.645 44.163 43.992 43.592 44.035 C 43.207 44.063 42.819 44.034 42.434 44.012 C 40.938 43.924 39.413998 44.002003 37.913998 44.002003 C 31.371998 44.002003 24.828999 44.002003 18.285997 44.002003 C 14.999997 44.002003 11.713997 44.002003 8.427998 44.002003 C 5.7839975 44.002003 3.0419974 44.231003 0.40899754 44.035004 C -0.18 43.989 0.0 43.6 0.0 43.085 C 0.0 42.288 0.0 41.492 0.0 40.695 C 0.0 38.97 0.0 37.245 0.0 35.519 C 0.0 32.202 0.0 28.882 0.0 25.566002 C 0.0 17.044 0.0 8.522 0.0 0.0 "
         id="path8"
         fill="none" />
    </g>
  </g>
  <g
     inkscape:groupmode="layer"
     id="layer1"
     inkscape:label="Warstwa"
     style="display:inline">
    <g
       id="g2871"
       transform="matrix(0.88774889,0,0,0.88774889,-2.5766348,1.4802367)">
      <g
         id="g2873"
         transform="translate(1.4697059,-3.4506139)">
        <rect
           id="rect2875"
           y="7.8859372"
           x="9.5695953"
           width="33.879116"
           style="fill:#ffffff"
           ry="0"
           height="37.421638" />
        <path
           id="path2877"
           style="fill:#000000"
           d="M 9.5520396,47.924256 C 7.730202,47.457664 6.3512802,45.939993 5.9545699,43.9648 c -0.2172065,-1.081486 -0.2172065,-33.963008 0,-35.0444935 0.4035489,-2.0092174 1.7789005,-3.4991851 3.6617186,-3.9668744 1.1370625,-0.2824444 32.3295395,-0.2824444 33.4665895,0 1.882831,0.4676893 3.258182,1.957657 3.66173,3.9668744 0.241305,1.2014685 0.210911,34.0899135 -0.03256,35.1813615 -0.44317,1.987001 -1.855018,3.438445 -3.758894,3.864307 -1.088143,0.243403 -32.440802,0.204241 -33.4011591,-0.04173 z M 36.867569,42.413912 c 1.01363,-0.317663 2.056774,-1.361843 2.277273,-2.279492 0.152801,-0.635953 0.105413,-1.046919 -0.574875,-4.987741 l -0.74139,-4.29468 -0.08853,-6.144306 c -0.08575,-5.948942 -0.09806,-6.162711 -0.387183,-6.722607 -0.164246,-0.31806 -1.346742,-1.679107 -2.627753,-3.02456 l -2.329123,-2.446272 -0.488821,0.393478 c -0.268863,0.216411 -0.488832,0.451842 -0.488832,0.523182 0,0.15531 1.182895,1.66039 1.701059,2.16437 l 0.367113,0.357078 -0.03473,2.172934 c -0.02834,1.771832 0.006,2.253006 0.185823,2.606658 0.451178,0.887376 1.202265,1.373434 2.122278,1.373434 l 0.487952,0 -0.09504,3.722735 c -0.106257,4.162251 -0.10686,4.155834 0.832522,9.588915 0.412185,2.384038 0.604763,3.842742 0.542118,4.106179 -0.05343,0.22472 -0.276377,0.585248 -0.495406,0.801163 -0.669457,0.659978 -1.537342,0.687019 -2.270011,0.0708 l -0.398387,-0.335102 -0.06851,-7.061727 -0.0685,-7.061738 -0.374735,-0.672738 c -0.278223,-0.499457 -0.558617,-0.769443 -1.088589,-1.048149 -0.633456,-0.333125 -0.877293,-0.37541 -2.165094,-0.37541 l -1.451252,0 0.05656,-5.354046 c 0.06332,-5.998352 0.03558,-6.222891 -0.874194,-7.065895 -0.773459,-0.716676 -1.124,-0.759975 -5.747065,-0.709862 -4.175697,0.04523 -4.255396,0.05174 -4.761705,0.383902 -0.283217,0.185836 -0.683919,0.641235 -0.890451,1.012002 l -0.37552,0.674137 -0.03738,14.663495 c -0.02062,8.064923 0.0096,14.70999 0.0685,14.766821 0.05825,0.05681 2.926251,0.149834 6.37332,0.206641 l 6.267413,0.103363 0,-8.400532 0,-8.400533 1.417191,0 c 1.266453,0 1.444944,0.03233 1.678155,0.304142 0.247021,0.287884 0.26463,0.680047 0.32947,7.33703 0.06814,6.995644 0.0702,7.035686 0.378848,7.559592 0.392947,0.66684 1.135133,1.267466 1.86328,1.507877 0.758226,0.250339 1.138232,0.247565 1.974192,-0.01436 z M 35.667897,20.777991 c -0.703216,-0.276486 -0.824766,-0.52136 -0.824766,-1.661487 l 0,-1.064636 0.376725,0.09492 c 0.207196,0.05222 0.450767,0.156382 0.541261,0.231438 0.203566,0.168842 0.349672,1.142694 0.290682,1.937478 -0.04221,0.567784 -0.06018,0.589518 -0.383902,0.462238 z m -17.050618,-0.29506 c -0.178371,-0.268731 -0.213263,-0.878547 -0.213263,-3.726703 0,-2.848169 0.03486,-3.457973 0.213263,-3.726716 0.21214,-0.319628 0.234272,-0.321305 4.236979,-0.321305 3.47528,0 4.053074,0.031 4.239006,0.227181 0.184329,0.194532 0.215277,0.751521 0.215277,3.874535 0,2.64406 -0.04523,3.695068 -0.164391,3.820828 -0.12049,0.127159 -1.252523,0.173497 -4.239006,0.173497 -4.055294,0 -4.075629,-0.0012 -4.287865,-0.321317 z" />
      </g>
    </g>
  </g>
  <g
     inkscape:groupmode="layer"
     id="layer2"
     inkscape:label="nutka"
     style="display:none">
    <g
       transform="translate(-0.0011875,1.0101164)"
       id="g10">
      <g
         id="g12">
        <rect
           style="fill:none"
           x="-0.041999999"
           width="44"
           y="-1"
           height="44"
           id="rect14" />
      </g>
      <g
         id="g16">
        <path
           style="fill-opacity:0.2;stroke-opacity:0.2"
           d="m 40.321,21.931 c 0.061,-0.473 0.052,-0.936001 -0.024,-1.369 -0.205,-1.221 -0.88,-2.395 -2.063,-3.586 L 22.626,1.24 3.884,14.76 l 0,5.133 0.913,0.575 9.926,10.009001 c -0.201001,0.389 -0.355,0.790001 -0.46,1.198 C 14.167,32.035 14.105,32.418 14.08,32.818 c -0.014,0.228 -0.015,0.452 -0.002,0.606 l 0.002,3.301 c -0.004,0.071 -0.004,0.139998 -0.002,0.251997 l 0.028,1.466999 0.184,-0.026 c 0.206,0.721001 0.572,1.358002 1.095,1.904999 l 0.07,0.075 c 1.022,1.025002 2.565,1.664001 4.229,1.750999 0.143,0.008 0.285,0.012 0.427,0.012 1.386,0 2.749,-0.356998 3.938,-1.032001 0.952,-0.535999 1.754999,-1.23 2.384,-2.063 1.034001,-1.356998 1.454001,-2.812999 1.216,-4.201 -0.03,-0.185001 -0.08,-0.360001 -0.146,-0.560001 l 0.078,-1.529 c 0.142,-0.637001 0.163,-1.221 0.067,-1.778999 -0.206,-1.215999 -0.883,-2.389998 -2.071,-3.587998 l -7.837,-7.900999 5.23,-3.883 4.386998,4.422001 c -0.2,0.389 -0.353,0.790001 -0.454999,1.194 -0.318001,1.184 -0.259001,2.327 0.166999,3.338 -0.069,0.184 -0.124,0.356001 -0.166999,0.525999 -0.490999,1.826999 -0.089,3.524999 1.153999,4.815 l 0.048,0.05 c 1.025,1.030001 2.565001,1.667 4.221998,1.747 0.14,0.007 0.263001,-0.012 0.418,0.011 1.244999,0 2.474998,-0.285 3.567001,-0.826 l 0.448003,-0.236 c 0.921,-0.522 1.706,-1.208001 2.332,-2.038 0.369,-0.486001 0.671,-1.027001 0.896,-1.609 l 0.334,-1.278999 0.031,-0.216 c 0.001,-0.047 -9.99e-4,-0.099 -0.004,-0.142 L 40.321,21.931 z"
           id="path18" />
        <path
           style="fill-opacity:0.4;stroke-opacity:0.4"
           d="M 39.32,21.867 C 39.375,21.49 39.378,21.109001 39.31,20.727001 39.116,19.570002 38.412003,18.575 37.523003,17.68 L 22.518,2.551 4.884,15.272 l 0,4.069 0.539,0.339 0.062,0.061 10.498,10.585 c -0.336001,0.479 -0.601,1.013 -0.753,1.605 -0.084,0.317 -0.131,0.633 -0.151,0.943 l 0,0 0,0.004 c -0.011,0.183998 -0.012,0.365002 0,0.544998 l 0,3.359 c -0.004,0.066 0,0.129003 0,0.193002 l 0,0.32 0.028,-0.004 c 0.061,0.873 0.373001,1.695 1.032001,2.369 0.004,0.006 0.008,0.012 0.025,0.029 0.875999,0.879 2.198,1.387 3.576,1.459 1.361,0.074 2.709,-0.264 3.819,-0.895 0.816,-0.459 1.523,-1.063 2.078001,-1.797003 C 26.459002,37.375996 26.864,36.197998 26.662,35.024 26.628,34.818996 26.559,34.628998 26.495,34.438 l 0.092,-1.806 c 0.116,-0.487 0.16,-0.98 0.075,-1.474 -0.194999,-1.156 -0.906,-2.153998 -1.795,-3.051 l -8.649,-8.720998 6.853001,-5.087 5.545999,5.59 c -0.336,0.479 -0.598998,1.013 -0.747999,1.604999 -0.290001,1.08 -0.208,2.141001 0.298001,3.049 -0.120002,0.260999 -0.226,0.528999 -0.298001,0.815001 -0.385,1.431998 -0.118,2.826 0.927,3.881 0.008,0.008 0.011,0.01 0.019,0.02 0.869,0.872999 2.191,1.386999 3.564,1.452999 1.272,0.066 2.551,-0.216999 3.636003,-0.787001 l 0.016,-0.002 0.185001,-0.105 c 0.013,-0.004 0.021,-0.012 0.022,-0.012 0.810001,-0.452999 1.505001,-1.055001 2.059002,-1.789 0.334999,-0.441 0.580002,-0.9 0.762001,-1.367 l 0.297001,-1.164 c 9.99e-4,-0.031 -0.005,-0.068 -0.004,-0.101999 L 39.32,21.867 z"
           id="path20" />
        <g
           id="g22">
          <linearGradient
             x1="4.8843002"
             y1="22.788099"
             x2="39.3535"
             gradientUnits="userSpaceOnUse"
             y2="22.788099"
             xlink:type="simple"
             xlink:actuate="onLoad"
             id="linearGradient2952"
             xlink:show="other">
            <stop
               stop-color="#870000"
               offset="0"
               id="stop2954" />
            <stop
               stop-color="#610000"
               offset="1"
               id="stop2956" />
          </linearGradient>
          <path
             style="fill:url(#linearGradient3043)"
             d="m 39.354,24.49 c 10e-4,-0.031 -0.005,-0.068 -0.004,-0.102 l -0.039,-4.660999 -6.410999,-3.844 L 22.518,5.416 18.661,8.198999 4.884,14.272 l 0,4.069 0.539,0.339 0.062,0.061 12.498,12.601 c -0.062,0.039 -0.119,0.092 -0.18,0.131 l -2.724,0.402001 0,3.907998 c -0.004,0.066 0,0.129003 0,0.193 l 0,0.32 0.028,-0.004 c 0.061,0.873 0.373001,1.695 1.032001,2.369 0.004,0.006 0.008,0.012 0.025,0.029 0.875999,0.879 2.198,1.387 3.576,1.459 1.361,0.074 2.709,-0.264 3.819,-0.895002 0.816,-0.458998 1.523,-1.063 2.078001,-1.797001 C 26.459002,36.376995 26.864,35.198997 26.662,34.024998 26.628,33.819996 26.559,33.629997 26.495,33.439 L 26.662,30.16 24.391,30.496 14.01,20.03 23.071,13.304001 30.616999,20.909 c -1.235001,0.778 -2.364001,1.929001 -2.747999,3.455 -0.385,1.432 -0.118,2.826 0.927,3.881 0.008,0.008 0.011,0.01 0.019,0.02 0.868999,0.872999 2.191,1.386999 3.563999,1.452999 1.271999,0.066 2.550998,-0.216999 3.636002,-0.787 l 0.016,-0.002 0.185,-0.104999 c 0.013,-0.004 0.021,-0.012 0.022,-0.012 0.81,-0.452999 1.505,-1.055 2.058997,-1.789 C 38.631996,26.582 38.877,26.123001 39.059,25.656 l 0.295,-1.166 z"
             id="path29" />
          <path
             style="fill:#4c060f"
             d="M 4.884,14.272 5.4849997,14.877001 17.983,27.476002 c -1.232,0.777 -2.36,1.926 -2.752,3.455 -0.378,1.426 -0.118,2.814001 0.908,3.864998 0.004,0.006 0.008,0.014 0.025,0.031 0.875999,0.879 2.198,1.387 3.576,1.457 1.361,0.076 2.709,-0.262 3.819,-0.893 0.816,-0.459 1.523,-1.063 2.078001,-1.799 C 26.459002,32.511997 26.864,31.334 26.662,30.16 26.467001,29.004 25.756,28.006 24.867,27.109 L 14.01,16.165 23.071,9.440001 30.616999,17.044 c -1.235001,0.779 -2.364001,1.93 -2.747999,3.455 -0.385,1.431 -0.118,2.83 0.927,3.882 0.008,0.006 0.011,0.008 0.019,0.018 0.868999,0.875 2.191,1.383 3.563999,1.453 1.271999,0.066 2.550998,-0.217 3.636002,-0.785 l 0.016,-0.004 0.185,-0.104 c 0.013,-0.006 0.021,-0.012 0.022,-0.012 0.81,-0.455 1.505,-1.055 2.058997,-1.789 C 39.114,22.079 39.520996,20.906 39.312996,19.727001 39.118996,18.570002 38.414997,17.575 37.525997,16.68 L 22.518,1.551 4.884,14.272 z"
             id="path31" />
          <linearGradient
             x1="19.5513"
             gradientTransform="matrix(0.8021,-0.5971,0.5971,0.8021,-5.9574,14.3803)"
             y1="7.3691001"
             x2="19.5513"
             gradientUnits="userSpaceOnUse"
             y2="33.576698"
             xlink:type="simple"
             xlink:actuate="onLoad"
             id="linearGradient2960"
             xlink:show="other">
            <stop
               stop-color="#ea0000"
               offset="0"
               id="stop2962" />
            <stop
               stop-color="#aa0000"
               offset="1"
               id="stop2964" />
          </linearGradient>
          <path
             style="fill:url(#linearGradient3045)"
             d="m 6.403,14.365 13.182,13.289999 c -0.159001,0.074 -0.324,0.152001 -0.478002,0.24 -1.225999,0.68 -2.378999,1.743999 -2.76,3.193001 -0.337999,1.273 -0.079,2.401998 0.731002,3.219 0.656,0.672 1.686,1.07 2.736,1.120998 1.051,0.051 2.144,-0.202998 3.076999,-0.724998 C 23.57,34.322 24.168,33.805 24.654,33.163998 c 0.726999,-0.951001 1.045,-1.941 0.879998,-2.9 -0.156,-0.955 -0.753,-1.82 -1.572999,-2.646 L 12.512,16.076 23.211,8.134001 32.228,17.218 c -0.159,0.077 -0.326999,0.156 -0.472,0.24 -1.230998,0.682 -2.382999,1.746 -2.764,3.198 -0.329,1.266 -0.076,2.395 0.728001,3.211 0.662001,0.672001 1.687999,1.074 2.741001,1.125 1.050998,0.053 2.145001,-0.207 3.074002,-0.726999 0.679001,-0.378999 1.279998,-0.898001 1.759998,-1.532999 0.726002,-0.958 1.050998,-1.948999 0.884998,-2.903999 -0.164,-0.958 -0.758,-1.818001 -1.572998,-2.646 L 22.381,2.839 6.403,14.365 z"
             id="path38" />
          <g
             id="g40">
            <linearGradient
               x1="21.2397"
               gradientTransform="matrix(0.8021,-0.5971,0.5971,0.8021,-5.9574,14.3803)"
               y1="-7.2012"
               x2="21.2397"
               gradientUnits="userSpaceOnUse"
               y2="31.216101"
               xlink:type="simple"
               xlink:actuate="onLoad"
               id="linearGradient2968"
               xlink:show="other">
              <stop
                 stop-color="#ff8d8d"
                 offset="0"
                 id="stop2970" />
              <stop
                 stop-color="#ff302e"
                 offset="1"
                 id="stop2972" />
            </linearGradient>
            <path
               style="fill:url(#linearGradient3047)"
               d="M 38.18,19.828 C 38.016,18.869999 37.422,18.009998 36.607002,17.182 L 22.381,2.839 6.403,14.365 l 5.035,5.074999 c 2.217,1.337 4.708,2.33 7.341999,2.957001 l -6.268,-6.32 10.699,-7.942 9.016998,9.084 c -0.159001,0.077 -0.327,0.156 -0.472,0.24 -1.230999,0.681999 -2.383,1.746 -2.764,3.198 -0.228001,0.869 -0.158001,1.664999 0.153999,2.348 3.158001,-0.365 6.243,-1.249001 9.056999,-2.649001 C 38.206,20.179 38.211,20.003 38.18,19.828 z"
               id="path47" />
          </g>
        </g>
      </g>
    </g>
  </g>
</svg>
